<?xml version="1.0" encoding="utf-8"?>
<!-- Generator: Adobe Illustrator 19.2.1, SVG Export Plug-In . SVG Version: 6.00 Build 0)  -->
<svg version="1.1" id="Calque_1" xmlns="http://www.w3.org/2000/svg" xmlns:xlink="http://www.w3.org/1999/xlink" x="0px" y="0px"
	 viewBox="0 0 1935.7 1978.6" style="enable-background:new 0 0 1935.7 1978.6;" xml:space="preserve">
<style type="text/css">
	.st0{fill:#CB351B;}
</style>
<g>
	<g>
		<path class="st0" d="M281.3,985.7c7-5.5,4-18.4,0.9-27c-4.3-12.8-9.7-25.2-14.6-37.8c-40-103.1-61.7-210.6-41.7-320.7
			c3.8-17.9,8.4-35.5,13.7-53c1.1-3.7,7.5-25.5,2.1-23.8c-1.6,0.5-5.5,4.7-10.5,10c-5,5.3-8.5,8.8-10.7,10.4
			c-5.7,4.2-7.7,0.9-4.7-9.5c4.4-15.6,13.5-30.1,22.3-43.2c12.9-19.5,28.3-38.1,44.5-55.4c10.2-10.9,20.7-22,32.1-31.7
			c3.2-2.8,9.3-7.6,18.8-13.5c6.4-4,14-8.7,22.2-14.2c10.9-7.2,21.6-15,32.4-22.3c9.3-6.3,19.3-12.7,28.9-18.1
			c8.8-5,9.2-0.8,8.6,6.6c-1.1,14.7-17.2,36-23.5,48.2c-8.8,17-17.6,34.5-27.8,50.5c-6.2,9.6-12.9,22-23.3,27
			c-2.1,1-5.1,1.2-8.6,0.7c-3.5-0.5-6.6-0.3-8.5,0.9c-22.5,13.4-29.2,63.3-34.1,88.7C282.3,668.8,304.8,776,343,879.4
			c4.6,11.8,19.9,58.8,35,54.2c2-0.6,5.3-3.6,9.1-7.5c3.8-4,6.8-6.4,9.1-7.5c6.5-2.9,14.2,0.1,22.4,8.1
			c10.3,10.1,16.2,22.8,21.8,35.6c7.3,16.8,15.5,36.2,15.8,54.1c0.2,8.8,0.3,22.4-10.3,27c-1.6,0.7-3,1-4.1,0.8
			c-9.7,1.6-19.5,3.3-29.2,5.1c-7.4,1.4-15,4.1-22.7,8.1c-12.6,6.5-24,15.1-34.3,24.8c-8.3,7.9-16.7,17-26.2,23
			c-9.4,6-22,1.7-30.6-4.3c-15.9-11-27.4-27.9-35.9-44.4c-6.5-12.6-11.7-25.5-12-40.4c-0.3-11.6,2.7-20,9.1-24.1
			c2.1-1.4,5.7-2.5,10.6-3.3C275.6,988.1,279.6,987.1,281.3,985.7z"/>
		<path class="st0" d="M653.2,419.7c-15.2,1.2-20.4,46.6-22.6,61C618.9,586,640,688.3,668.8,789.2c4.4,15.1,8.3,30.5,14,45.1
			c3.5,9,9.3,21.2,19.3,24.5c1.5,0.4,3.2,0.6,5.1,0.7c1.9,0,3.9-0.1,5.9-0.5c5.3-1,11.9-0.4,20.5-0.3c26.2,1.1,30-20.5,24.2-41.6
			c-2.7-9.7-6.2-20-9.8-29.3c-4.6-11.9-9.2-24.5-12.3-36.8c-4.1-16.5-8.1-36.7-2.4-52.2c3.1-8.5,9.4-20.8,21.9-18.2
			c32.3,6.6,45.8,57.1,52.9,83.5c1.5,5.5,3.1,12.3,4.9,20.1c1.8,7.8,3.8,16.1,5.9,26.4c2.1,10.3,3.9,19.1,5.5,26.5
			c1.6,7.4,2.8,13.2,3.8,17.6c1.3,5.5,2.6,10.8,3.8,16c1.3,5.2,2.5,10.3,3.7,15.2c2.5,9.8,5.2,19.5,7.4,26.6
			c2.2,7.1,3.4,11.2,3.7,12.4c3,12,11.9,46.6-12.5,44.5c-4.4-0.4-10-0.8-16.6-1.6c-6.6-0.8-14.4-1.9-23.4-3.1
			c-36.8-4.9-72.7-0.9-109.3,2c-8.3,0.7-16,1.8-22.7,3.5c-6.7,1.6-12.9,3.6-18.4,5.8c-5.5,2.3-10.4,4.3-14.2,6
			c-3.8,1.7-7.7,3.1-11.7,3.9c-10.9,2.2-21.5-6-28.5-13.6c-12.9-14-22.2-31.5-28.6-48.8c-4.9-13.2-8.2-26.5-6.7-41.1
			c1.1-10.9,5.1-17.6,11.9-19c2.3-0.5,6-0.2,11,0.9c5,1.1,9.2,1.7,10.9,1c13.4-5.5-2.2-51.3-5.8-63.5
			c-31.6-100.8-54.5-203.3-44.8-309.6c1.6-14.1,13.4-75,1.1-78.4c-1.4-0.4-5.8,1.6-10.7,4.4c-4.9,2.8-8.7,4.4-11.2,4.7
			c-6.4,0.7-10.1-5.4-10.4-17.8c-0.3-16,5.1-32,11.2-46.1c10.3-24,32.8-68.3,62.8-69.5c12.1-0.5,26.1,2.8,38.3,5
			c8.2,1.5,16,3.2,23,4.6c7,1.4,13.6,2.6,19.6,3.5c5.1,0.8,9.9,1.3,14.3,1.4c4.4,0.2,8.6,0.1,12.5-0.4c11.7-1.3,15.8-2.1,17.3-1.7
			c2.4,0.5,12.8,9.2,13.2,21.4c0.5,16.2-4.4,32.2-9.1,47.6c-4.6,14.9-10.5,30-18.7,43.2c-7,11.2-13.9,16.5-20.6,15.3
			c-3.3-0.6-7.2-2.4-9.6-4.9C658,421.4,654.9,419.6,653.2,419.7z"/>
		<path class="st0" d="M995.4,1003.7c-42.4-11.4-81.6-56-103.8-93.4c-42.5-71.4-72.2-155.5-87.5-237c-14.6-78-17.8-178.6,34.5-242.8
			c25.9-31.8,62.2-41.5,90.3-13c8.1,8.2,14.9,0.3,24.2,2.3c11.6,2.5,19.3,19.7,23.7,27.9c12.7,23.8,18.9,51.6,25.3,78.7
			c10.5,43.8,21.7,87.6,32.2,131.3c19.5,81,32.4,156,19.2,238.4c-4.1,25.5-9.4,51.5-22,74.5
			C1026.2,980.4,1008.7,1007.2,995.4,1003.7z M914.4,522.4c-18.4-14.7-32,11.2-36.8,26.7c-14.8,48-6.6,103,3,150.5
			c9.5,46.6,23.3,93.4,42.7,136.8c9.6,21.3,28,52.4,49.5,60.8c16.5,6.4,21.1-43.3,21.1-51.2c0-46.5-13.6-93.2-24.3-138.1
			c-11.8-49.4-20.6-100.1-31.6-149c-1.7-7.7-3.4-21.2-9.6-27.8C924.6,526.9,918.8,525.9,914.4,522.4z"/>
		<path class="st0" d="M1160.6,443.3c29.9,95.9,67.4,189.5,92.1,287.1c-3.8-101.1-19.6-201.4-24.6-302.5
			c-0.5-10.6-0.9-18.3-1.7-22.2c-1.9-9.6-4.9-13.6-8.9-12.3c-2.1,0.4-3.2,0.6-5.2,1c-0.3,0.1-0.4,0.1-0.7,0.1
			c-18.5,1.6-22.2-33.9-24.1-45c-2.4-13.8-11.6-54,10.5-58.3c4.8-0.9,12.4-1.2,23.9-0.4c11.5,0.7,21.1,1,27.4,0.4
			c9.6-0.9,18.6-2.4,26.5-4.5c11.9-3.2,21.2-4.4,27.4-4.2c11.9,0.5,22.7,7.1,30.8,15.6c10.2,10.6,17.9,24.2,22,38.2
			c3.5,11.8,5.7,25.1,2.7,37.3c-2.5,10.2-7.8,15.3-15.6,15.1c-2.6-0.1-6.5-1.1-11.7-3c-5.2-1.9-8.8-3-9.9-2.8
			c-16.3,3.1-11.2,63.2-10.9,77.2c4.2,113.6,16.7,229.7-2.3,342.5c-2.5,19.8-5.5,70.7-28.9,77.4c-2.2,0.6-5.8,0.9-10.2,1.1
			c-4.4,0.2-7.6,0.6-9.7,1.1c-2.1,0.5-5.1,1.7-8.9,3.4c-3.7,1.7-6.1,2.8-9.3,3.5c-28.9,7.3-43.7-68.8-48.5-85.4
			c-32.4-109.2-90.7-208.4-123.2-317.7c-2.2-7.3-9.8-39.6-20-36.6c-1.8,0.5-4.5,3.3-7.6,6.9c-3,3.6-6.1,6.2-9.1,7.8
			c-6,3.2-11.3,0.6-15.3-7.4c-5.2-10.5-6.6-22.9-6.8-34.6c-0.5-24.8,3-55.7,26.1-69.8c5-3.1,13-6.5,24.5-10.2
			c9.2-2.9,18.6-5.7,27.4-9.5c11-4.8,21.6-10.8,32.1-16.6c8.5-4.7,17.4-9.6,26.7-12.5c24.5-7.7,26.8,33.2,29.2,49.2
			c1.6,10.3,9.4,42.1-3.1,49.9c-0.9,0.2-2.7,0.7-4.9,1.3c-1.1,0.3-2.8,0.7-5,1.3c-6.6,1.8-8.9,6.7-7.9,17.2
			C1156.5,428,1158,435,1160.6,443.3z"/>
		<path class="st0" d="M1525.8,420.8c-8.7-3.8-14.8-4.5-15.7-2.9c-3.4,6.2,2.2,19.3,5.1,28.4c5.1,14.8,9.9,29.7,14.4,44.7
			c2.8,9.2,5.4,16.2,8,21.2c2.6,5,7,7.9,11.7,9.7c13.9,5.2,13.7-12.1,10.2-19.7c-1.3-4.1-2-6.1-3.4-10.2c-1.1-3.1-2.5-7.1-4-11.7
			c-2.1-6.5-8.9-33,8.4-23.4c16.6,9.2,29,29.7,35.8,47.6c2.6,7,5.2,14.6,7.4,22.9c4.1,15.3,8.2,30.7,12.4,46
			c4.8,17.3,9.7,34.8,13.9,52.1c3.5,14.6,7.2,29.8,8.7,44.5c1.2,11.3,3.8,46.3-18,41.1c-18.5-4.5-22.4-29.7-24.1-45.6
			c-0.2-1.6-0.3-2.4-0.5-4c-0.3-2.7-1.1-9.2-2.7-19.4c-1.8-11.8-10.5-22.6-21-23.6c-10.7-1-8.6,15.4-7.9,23.9
			c2.8,20.6,4.8,41.2,6,62c0.7,14.6,0.3,30.6,5.3,44.1c2.9,7.8,9.4,12.4,18.7,14c9.6,1.7,14.3,2.6,23.7,4.6
			c11.9,2,26.2,5.5,36.6-0.9c10.1-6.2,10.9-20.5,11.3-31.3c0.3-9-0.8-18.9-2.1-28c-1.5-10.2-2.7-18.7-3.4-25.4
			c-1.5-13.6-3.3-28.9,1.5-41.6c3.2-8.5,9.9-10.9,19.2-6.8c25.7,11.4,35.6,45.2,38.4,71c1.5,13.4,2,27.1,1.4,40.5
			c-0.7,16.8-2.5,33.7-4.4,50.2c-1.3,11.5-2.2,23.3-3.5,35c-1.1,10-3.3,20.4-6,30c-3.9,14.2-14.2,33-32.1,28c-4.5-1.3-12-4-22.4-8
			c-28.2-10.8-58.2-16.5-88.1-21.1c-11.9-1.4-23.7-2.5-35.7-3.3c-11.5-0.4-22.9-0.9-34.3,0.9c-10.8,1.5-21.4,3.2-32.2,5
			c-0.3,0-1,0.5-1.8,0.7c-0.6,0.2-1.5,0-2.1,0.1c-8.6,0.3-13.8-4.9-19-16.3c-6.3-13.9-7.1-30.9-6-45.6c1-14.1,3.8-28,10.6-40.8
			c5.8-11.1,11.4-17.1,18.5-17.2c2.3,0,5.9,1.1,10.5,3.5s8.4,3.9,10,3.6c14.5-2.6,11-48.9,10.3-62c-7.3-80.8-26.1-159.6-47-237.8
			c-4.6-16.3-11.1-52.3-27-57.6c-1.4-0.5-4.8,0-9.3,1.3c-3.2,0.9-6.4,1.3-9.2,0.9c-9.2-1.4-16.6-11.1-22.1-17.4
			c-9.1-10.5-15.9-24.1-19.6-37.5c-3.2-11.7-12.1-54.6,15.1-46.8c9.3,2.7,18.8,6.2,27.8,10c19.7,8.4,39.4,17.5,58.7,26.5
			c14.2,6.6,28.6,14,42,22c11.8,7.1,23.6,15.1,35,23.3c9.6,6.9,18.7,14.6,27.4,22.4c14.6,13.2,28.2,28.5,40.4,44.1
			c6.8,8.7,13.3,17.8,19.2,27.2c6,9.4,11.7,19.1,17.3,28.7c6,10.3,12.1,20.8,18,31.2c5.7,10.2,11.7,20.8,15.9,31.3
			c3.5,8.7,8.3,20.1,5.4,29.9c-2,6.6-7.6,8.2-15.9,4.4c-26.7-12.3-39.4-45.2-49.1-70.7c-2.4-6.4-5.3-15-8.9-25.4
			c-3.6-10.5-6.7-18.2-9.2-23.4c-4.2-9-10.1-17.3-17.8-23.7c-2.5-2.1-7.9-5.6-16.5-10.2C1551.6,433,1538.8,426.7,1525.8,420.8z"/>
		<path class="st0" d="M642.2,1184.3c29.6,27.7,57.2,57.1,84.2,87.3c-15.7-33.5-30.3-67.4-45-101.3c-4.6-10.7-8.8-22.3-15-31.8
			c-3.5-5.3-9.7-10.1-18.1-13.8c-13.8-6.1-24.9-19.4-32.4-31.7c-8.6-14-31.6-53.6-3.1-61.2c6-1.6,12.2-2.3,18.4-2
			c9.5,0.4,19.5,1,28.8-0.3c5.7-0.8,13.7-3.5,23.3-7.4c9.6-3.9,16.9-6,21.9-6.4c10.9-1,21,5.5,28.4,13.1
			c10.7,11,19.1,24.8,25.8,38.4c5.2,10.5,10.2,22,11.8,33.7c1.3,9.2-0.7,14.3-6.3,15.1c-2.3,0.3-6.4-0.1-12.3-1.4
			c-4.3-0.9-7.5-1.3-9.4-1c-3.9,0.6-6,2.9-5.7,6.4c0.7,10.8,4.4,22.2,7.3,33.1c21.7,76,53.5,148.3,85.2,220.6
			c13.5,30.1,26.5,60.4,41,90.1c4.8,9.7,9.6,19.4,14.2,29.2c4,8.5,18.7,43.8,27.2,41c1.2-0.4,3.1-3.8,4.9-8c1.8-4.2,3.4-6.8,4.7-7.7
			c3.3-2.3,8.6,2,15.1,12.3c8.1,12.6,14.1,27.1,18.3,41.5c4.4,14.8,8.1,29.9,8.6,45.4c0.3,11.8-1.5,19.3-5.1,23
			c-2.7,2.7-7.1,5.6-13.4,8.7c-6.3,3.1-11,6.1-13.9,9c-3.1,3.1-7.3,9.1-12.5,18c-5.2,8.9-9.3,15-12.4,18.3c-3.6,3.9-8.5,2.2-15.1-6
			c-9.6-12-16.5-26.5-23.1-40.4c-6.6-13.9-33.5-60.4-20-73.8c1.2-1.2,4.1-1.7,8.1-1.7c4,0,7.3-0.6,8-1.7
			c6.9-9.6-11.1-39.1-17.5-51.7c-5.3-10-10.6-19.9-16-29.9c-15.3-28.2-34.8-53.8-55.1-78.5c-66.6-79.9-139.9-152.5-222.6-215.7
			c-7.9-5.3-17.1-12.9-25.4-10.2c-1.3,0.4-3.1,2.5-4.9,5.5c-2.4,3.9-4.7,6.6-7.1,7.7c-19.1,9-43.8-21.8-53.9-34
			c-10.2-12.3-44.6-56.4-16.1-69.7c4.6-2.1,12.9-4.6,24.7-6.6c11.8-2.1,20.4-4.2,25.9-6.5c8.7-3.7,17.4-9.9,24.6-15.8
			c6-4.9,11.5-8.2,15.9-9.8c26.3-9.3,50.2,29.5,61.2,46.6c6.2,9.7,14.3,21.4,12.9,34c-0.6,5.1-1.1,8.6-1.4,10.6
			c-0.4,2,0.7,4.7,3.2,8.1c0.7,0.9,1,1.3,1.6,2.2c3.3,4.4,6.7,8.2,10.3,11.3C626.9,1170.2,632.5,1175.4,642.2,1184.3z"/>
		<path class="st0" d="M1104.1,1511.7c-18.8,19.2-30-20.3-33.9-31c-26.8-74-53.5-149.1-83.7-222.4c-16.1-39.1-29.4-78.9-41.4-119.6
			c-6.8-23.2-12.1-48.2-8.5-71.4c5-31.4,25.4-56.3,60.6-48.2c14.4,3.3,28.2-3.4,43.4,0.8c16.6,4.7,29.6,15.9,40.5,28.1
			c39.8,44.6,48.5,107.2,59.7,165.7c13.6,71.3,22.3,142.1,4.2,212.5C1137.5,1455.5,1125.3,1490.1,1104.1,1511.7z M1022.6,1106.8
			c-44-5.9,9.6,138.4,13.5,149.4c15.4,43.2,30.3,87.1,45.4,130.2c2.8,8,13.5,44,25.8,37.8c12.2-6.2,12.3-34.7,12.7-48.2
			c1.2-44.6-10-87.1-21.9-129.7c-10.6-38.3-17.2-86.3-39.8-118.2C1048.4,1113.8,1039.6,1109.1,1022.6,1106.8z"/>
		<path class="st0" d="M1503.6,1031.3c-3.8,10.7-8.6,21-13.2,31.4c-9.8,21.5-19.8,42.9-30.3,64c-4.3,8.7-6.4,12.9-10.7,21.4
			c-15.3,29.8-31.5,59-51.1,86.2c-18.7,26-39.9,50.3-62.1,73.5c-25.8,26.6-54.1,54.2-80.8,77.5c-25.3,22-9.5-18-6.7-26.7
			c10.9-34.8,20.2-69.9,27.7-105.5c6.1-29.2,8.8-58.8,12.5-88.4c3.6-29.1,7.9-58.3,12.2-87.4c1.8-9.4,2.7-19.3,3-28.9
			c0.3-6.6,2.7-35-6.7-34.8c-1.3,0-4,1.4-7.3,3.2c-3.3,1.8-5.9,2.9-7.8,3.3c-4.8,1-8.5-2.3-11.2-10c-3.5-10-3.6-21.1-3.2-31.1
			c0.6-13.5,3.5-27.8,8.8-40.4c3.2-7.7,11.6-17.5,20.4-19.2c5.3-1,13.4-1.5,24.6-0.9c11.2,0.6,20,0.6,26-0.2
			c5.2-0.7,13.1-2.9,24.9-7.1c11.8-4.2,20.9-6.4,26.9-6.9c9.4-0.9,16.4,3.8,20,13.4c4.7,12.6,2.7,26.4-0.2,38.8
			c-3.2,13.9-9.2,40-27.5,43c-1.7,0.2-2.6,0.3-4.3,0.4c-1.4,0.2-3.3,0.4-5.5,0.6c-4.8,0.6-8.5,5.8-11.1,15.4
			c-0.1,0.5-1.6,8.4-4.2,23.7c-9.7,59.1-25.1,120.9-41.6,178.5c-6.5,21.9-14.9,44.1-18.9,66.4c-1.9,10.9,1.6,14.3,9.4,10.3
			c11.6-6,20.3-17,28.2-27c15.6-19.7,27.5-42.8,38.4-65.9c23.9-54.4,46.1-112.9,62.4-170c2.9-10.1,6.5-20.5,7.6-30.5
			c0.5-4-1.2-6.2-4.6-6.1c-1.7,0.1-3.1,0.2-4.4,0.2c-1.5,0.1-2.2,0.1-3.6,0.2c-16.4-0.2-5.9-34.1-4.1-41.1c3.4-13.4,9-27,16.4-38.7
			c4.3-6.7,13.8-15.4,22.7-15.4c5,0,12.4,1.2,21.9,3.9c9.5,2.7,16.6,4.2,21.5,4.5c5.7,0.3,14.5-0.5,26.5-1.9c12-1.5,20.7-1.7,26.3-1
			c8.6,1,14,7,15.5,16.9c2,13.1-2.4,25.7-7.1,37.6c-4.3,10.7-10.6,21.2-18.7,29.7c-6.9,7.2-13.2,10.5-18.9,10.1
			c-1.8-0.1-4.2-0.9-7-2.2c-2.9-1.3-5.3-2.2-6.8-2.1C1515.6,996.2,1507.8,1021.2,1503.6,1031.3z"/>
	</g>
</g>
<g>
</g>
<g>
</g>
<g>
</g>
<g>
</g>
<g>
</g>
<g>
</g>
</svg>
